<?xml version="1.0" encoding="utf-8"?>
<!-- Generator: Adobe Illustrator 16.0.0, SVG Export Plug-In . SVG Version: 6.00 Build 0)  -->
<!DOCTYPE svg PUBLIC "-//W3C//DTD SVG 1.1//EN" "http://www.w3.org/Graphics/SVG/1.1/DTD/svg11.dtd">
<svg version="1.1" id="Calque_1" xmlns="http://www.w3.org/2000/svg" xmlns:xlink="http://www.w3.org/1999/xlink" x="0px" y="0px"
	 width="107.408px" height="66.014px" viewBox="0 0 107.408 66.014" enable-background="new 0 0 107.408 66.014"
	 xml:space="preserve">
<path id="V_kontakte_1_" fill="#D73351" d="M5.643,5.46c-2.675,0-3.986,1.226-3.053,3.709c0.935,2.481,11.681,26.486,24.387,40.181
	c11.76,12.674,23.384,11.535,31.472,11.535c2.594,0,3.66-1.729,3.625-3.893c-0.131-8.17,3.047-12.566,8.787-6.838
	c6.35,6.344,7.662,10.73,15.375,10.73c2.928,0,10.807,0,13.648,0c10.74,0,1.17-10.764-6.395-17.773
	c-7.195-6.67-7.535-6.83-1.338-14.853c7.689-9.962,17.746-22.8,8.85-22.8c-1.74,0-0.496,0-16.984,0
	c-3.297,0-3.537,1.921-4.705,4.688C75.068,20.138,67,33.094,63.933,31.116c-3.209-2.068-1.74-9.087-1.494-21.246
	c0.066-3.213,0.047-5.422-4.865-6.56C44.15,0.197,32.515,6.316,37.268,7.198c6.7,1.25,6.058,14.569,4.497,20.822
	c-2.722,10.887-12.953-8.619-17.218-18.338c-1.029-2.338-1.341-4.222-5.016-4.222C17.518,5.46,8.631,5.46,5.643,5.46"/>
</svg>
